{
    "asset" : {
        "generator" : "Khronos glTF Blender I/O v1.5.17",
        "version" : "2.0"
    },
    "scene" : 0,
    "scenes" : [
        {
            "name" : "Scene",
            "nodes" : [
                0
            ]
        }
    ],
    "nodes" : [
        {
            "mesh" : 0,
            "name" : "pizza",
            "rotation" : [
                -0.0015497201820835471,
                0,
                0,
                1
            ],
            "scale" : [
                0.02843683585524559,
                0.02843683585524559,
                0.02843683585524559
            ]
        }
    ],
    "materials" : [
        {
            "doubleSided" : true,
            "name" : "13917_Pepperoni",
            "pbrMetallicRoughness" : {
                "baseColorTexture" : {
                    "index" : 0
                },
                "metallicFactor" : 0,
                "roughnessFactor" : 0.8945907354354858
            }
        },
        {
            "doubleSided" : true,
            "name" : "plate",
            "pbrMetallicRoughness" : {
                "baseColorTexture" : {
                    "index" : 1
                },
                "metallicFactor" : 0,
                "roughnessFactor" : 0.870900571346283
            }
        }
    ],
    "meshes" : [
        {
            "name" : "pizza",
            "primitives" : [
                {
                    "attributes" : {
                        "POSITION" : 0,
                        "NORMAL" : 1,
                        "TEXCOORD_0" : 2
                    },
                    "indices" : 3,
                    "material" : 0
                },
                {
                    "attributes" : {
                        "POSITION" : 4,
                        "NORMAL" : 5,
                        "TEXCOORD_0" : 6
                    },
                    "indices" : 7,
                    "material" : 1
                }
            ]
        }
    ],
    "textures" : [
        {
            "sampler" : 0,
            "source" : 0
        },
        {
            "sampler" : 0,
            "source" : 1
        }
    ],
    "images" : [
        {
            "bufferView" : 4,
            "mimeType" : "image/jpeg",
            "name" : "13917_Pepperoni_diffuse"
        },
        {
            "bufferView" : 9,
            "mimeType" : "image/jpeg",
            "name" : "plate_diffuse"
        }
    ],
    "accessors" : [
        {
            "bufferView" : 0,
            "componentType" : 5126,
            "count" : 23544,
            "max" : [
                5.648799896240234,
                3.27239990234375,
                6.713600158691406
            ],
            "min" : [
                -5.36299991607666,
                0.6424000263214111,
                -7.642099857330322
            ],
            "type" : "VEC3"
        },
        {
            "bufferView" : 1,
            "componentType" : 5126,
            "count" : 23544,
            "type" : "VEC3"
        },
        {
            "bufferView" : 2,
            "componentType" : 5126,
            "count" : 23544,
            "type" : "VEC2"
        },
        {
            "bufferView" : 3,
            "componentType" : 5123,
            "count" : 138912,
            "type" : "SCALAR"
        },
        {
            "bufferView" : 5,
            "componentType" : 5126,
            "count" : 20594,
            "max" : [
                6.435699939727783,
                1.3179999589920044,
                6.380300045013428
            ],
            "min" : [
                -6.567999839782715,
                0.004999999888241291,
                -6.6234002113342285
            ],
            "type" : "VEC3"
        },
        {
            "bufferView" : 6,
            "componentType" : 5126,
            "count" : 20594,
            "type" : "VEC3"
        },
        {
            "bufferView" : 7,
            "componentType" : 5126,
            "count" : 20594,
            "type" : "VEC2"
        },
        {
            "bufferView" : 8,
            "componentType" : 5123,
            "count" : 122688,
            "type" : "SCALAR"
        }
    ],
    "bufferViews" : [
        {
            "buffer" : 0,
            "byteLength" : 282528,
            "byteOffset" : 0
        },
        {
            "buffer" : 0,
            "byteLength" : 282528,
            "byteOffset" : 282528
        },
        {
            "buffer" : 0,
            "byteLength" : 188352,
            "byteOffset" : 565056
        },
        {
            "buffer" : 0,
            "byteLength" : 277824,
            "byteOffset" : 753408
        },
        {
            "buffer" : 0,
            "byteLength" : 499235,
            "byteOffset" : 1031232
        },
        {
            "buffer" : 0,
            "byteLength" : 247128,
            "byteOffset" : 1530468
        },
        {
            "buffer" : 0,
            "byteLength" : 247128,
            "byteOffset" : 1777596
        },
        {
            "buffer" : 0,
            "byteLength" : 164752,
            "byteOffset" : 2024724
        },
        {
            "buffer" : 0,
            "byteLength" : 245376,
            "byteOffset" : 2189476
        },
        {
            "buffer" : 0,
            "byteLength" : 74900,
            "byteOffset" : 2434852
        }
    ],
    "samplers" : [
        {
            "magFilter" : 9729,
            "minFilter" : 9987
        }
    ],
    "buffers" : [
        {
            "byteLength" : 2509752,
            "uri" : "data:application/octet-stream;base64,"
        }
    ]
}
