{
    "asset" : {
        "generator" : "Khronos glTF Blender I/O v1.5.17",
        "version" : "2.0"
    },
    "scene" : 0,
    "scenes" : [
        {
            "name" : "Scene",
            "nodes" : [
                0,
                1,
                3
            ]
        }
    ],
    "nodes" : [
        {
            "name" : "Light",
            "rotation" : [
                0.16907575726509094,
                0.7558803558349609,
                -0.27217137813568115,
                0.570947527885437
            ],
            "translation" : [
                -1.2973804473876953,
                1.381105661392212,
                0.39782363176345825
            ]
        },
        {
            "name" : "Camera",
            "rotation" : [
                0.013384563848376274,
                0.855411171913147,
                -0.5173031091690063,
                0.022137200459837914
            ],
            "translation" : [
                0.03854427859187126,
                0.18265870213508606,
                -0.3213987648487091
            ]
        },
        {
            "mesh" : 0,
            "name" : "Es"
        },
        {
            "children" : [
                2
            ],
            "mesh" : 1,
            "name" : "Donat",
            "rotation" : [
                0,
                -0.9354862570762634,
                0,
                0.3533630967140198
            ],
            "translation" : [
                0,
                0.024354634806513786,
                0
            ]
        }
    ],
    "materials" : [
        {
            "doubleSided" : true,
            "name" : "Material.002",
            "pbrMetallicRoughness" : {
                "baseColorFactor" : [
                    0.19598853588104248,
                    0.04691792652010918,
                    0.014876605942845345,
                    1
                ],
                "metallicFactor" : 0,
                "roughnessFactor" : 0.4000000059604645
            }
        },
        {
            "doubleSided" : true,
            "name" : "Material.003",
            "pbrMetallicRoughness" : {
                "metallicFactor" : 0,
                "roughnessFactor" : 0.5555626153945923
            }
        }
    ],
    "meshes" : [
        {
            "name" : "Torus.001",
            "primitives" : [
                {
                    "attributes" : {
                        "POSITION" : 0,
                        "NORMAL" : 1,
                        "TEXCOORD_0" : 2
                    },
                    "indices" : 3,
                    "material" : 0
                }
            ]
        },
        {
            "name" : "Torus",
            "primitives" : [
                {
                    "attributes" : {
                        "POSITION" : 4,
                        "NORMAL" : 5,
                        "TEXCOORD_0" : 6
                    },
                    "indices" : 7,
                    "material" : 1
                }
            ]
        }
    ],
    "accessors" : [
        {
            "bufferView" : 0,
            "componentType" : 5126,
            "count" : 38603,
            "max" : [
                0.07282775640487671,
                0.03011779673397541,
                0.0753026232123375
            ],
            "min" : [
                -0.07321884483098984,
                -0.004382221959531307,
                -0.07597770541906357
            ],
            "type" : "VEC3"
        },
        {
            "bufferView" : 1,
            "componentType" : 5126,
            "count" : 38603,
            "type" : "VEC3"
        },
        {
            "bufferView" : 2,
            "componentType" : 5126,
            "count" : 38603,
            "type" : "VEC2"
        },
        {
            "bufferView" : 3,
            "componentType" : 5123,
            "count" : 226752,
            "type" : "SCALAR"
        },
        {
            "bufferView" : 4,
            "componentType" : 5126,
            "count" : 23377,
            "max" : [
                0.07165374606847763,
                0.025420816615223885,
                0.07181292027235031
            ],
            "min" : [
                -0.07252809405326843,
                -0.024796603247523308,
                -0.07369639724493027
            ],
            "type" : "VEC3"
        },
        {
            "bufferView" : 5,
            "componentType" : 5126,
            "count" : 23377,
            "type" : "VEC3"
        },
        {
            "bufferView" : 6,
            "componentType" : 5126,
            "count" : 23377,
            "type" : "VEC2"
        },
        {
            "bufferView" : 7,
            "componentType" : 5123,
            "count" : 138240,
            "type" : "SCALAR"
        }
    ],
    "bufferViews" : [
        {
            "buffer" : 0,
            "byteLength" : 463236,
            "byteOffset" : 0
        },
        {
            "buffer" : 0,
            "byteLength" : 463236,
            "byteOffset" : 463236
        },
        {
            "buffer" : 0,
            "byteLength" : 308824,
            "byteOffset" : 926472
        },
        {
            "buffer" : 0,
            "byteLength" : 453504,
            "byteOffset" : 1235296
        },
        {
            "buffer" : 0,
            "byteLength" : 280524,
            "byteOffset" : 1688800
        },
        {
            "buffer" : 0,
            "byteLength" : 280524,
            "byteOffset" : 1969324
        },
        {
            "buffer" : 0,
            "byteLength" : 187016,
            "byteOffset" : 2249848
        },
        {
            "buffer" : 0,
            "byteLength" : 276480,
            "byteOffset" : 2436864
        }
    ],
    "buffers" : [
        {
            "byteLength" : 2713344,
            "uri" : "data:application/octet-stream;base64,"
        }
    ]
}
