{
    "asset" : {
        "generator" : "Khronos glTF Blender I/O v1.5.17",
        "version" : "2.0"
    },
    "scene" : 0,
    "scenes" : [
        {
            "name" : "Scene",
            "nodes" : [
                0
            ]
        }
    ],
    "nodes" : [
        {
            "mesh" : 0,
            "name" : "10864_rotisserie_chicken_v2_L3.001",
            "rotation" : [
                0.4961799383163452,
                0.5037912726402283,
                0.5037912130355835,
                0.49617987871170044
            ],
            "scale" : [
                0.0014767912216484547,
                0.001476791687309742,
                0.0014767912216484547
            ],
            "translation" : [
                0.05306108668446541,
                0,
                -0.024594267830252647
            ]
        }
    ],
    "materials" : [
        {
            "doubleSided" : true,
            "name" : "_10864_rotisserie_chicken_v2_L303___Default.001",
            "pbrMetallicRoughness" : {
                "baseColorTexture" : {
                    "index" : 0
                },
                "metallicFactor" : 0,
                "roughnessFactor" : 0.7642977237701416
            }
        }
    ],
    "meshes" : [
        {
            "name" : "10864_rotisserie_chicken_v2_L3.001",
            "primitives" : [
                {
                    "attributes" : {
                        "POSITION" : 0,
                        "NORMAL" : 1,
                        "TEXCOORD_0" : 2
                    },
                    "indices" : 3,
                    "material" : 0
                }
            ]
        }
    ],
    "textures" : [
        {
            "sampler" : 0,
            "source" : 0
        }
    ],
    "images" : [
        {
            "bufferView" : 4,
            "mimeType" : "image/jpeg",
            "name" : "chicken"
        }
    ],
    "accessors" : [
        {
            "bufferView" : 0,
            "componentType" : 5126,
            "count" : 15169,
            "max" : [
                81.0728988647461,
                152.48770141601562,
                102.86289978027344
            ],
            "min" : [
                -85.32489776611328,
                -168.91909790039062,
                -184.7877960205078
            ],
            "type" : "VEC3"
        },
        {
            "bufferView" : 1,
            "componentType" : 5126,
            "count" : 15169,
            "type" : "VEC3"
        },
        {
            "bufferView" : 2,
            "componentType" : 5126,
            "count" : 15169,
            "type" : "VEC2"
        },
        {
            "bufferView" : 3,
            "componentType" : 5123,
            "count" : 89280,
            "type" : "SCALAR"
        }
    ],
    "bufferViews" : [
        {
            "buffer" : 0,
            "byteLength" : 182028,
            "byteOffset" : 0
        },
        {
            "buffer" : 0,
            "byteLength" : 182028,
            "byteOffset" : 182028
        },
        {
            "buffer" : 0,
            "byteLength" : 121352,
            "byteOffset" : 364056
        },
        {
            "buffer" : 0,
            "byteLength" : 178560,
            "byteOffset" : 485408
        },
        {
            "buffer" : 0,
            "byteLength" : 202982,
            "byteOffset" : 663968
        }
    ],
    "samplers" : [
        {
            "magFilter" : 9729,
            "minFilter" : 9987
        }
    ],
    "buffers" : [
        {
            "byteLength" : 866952,
            "uri" : "data:application/octet-stream;base64,"
        }
    ]
}
